<svg xmlns="http://www.w3.org/2000/svg" width="512" height="512" viewBox="0 0 512 512" version="1.1"><path d="M 144.342 118.479 C 99.226 126.666, 72.127 164.901, 80.484 208.579 C 84.380 228.942, 96.889 244.381, 117.782 254.613 C 122.928 257.132, 138.602 262.962, 152.615 267.567 C 180.510 276.734, 189.515 280.876, 197.585 288.252 C 204.804 294.850, 208.029 301.668, 208.724 311.800 C 210.425 336.627, 196.398 356.023, 172 362.578 C 163.139 364.958, 142.992 364.945, 134 362.552 C 122.087 359.382, 108.277 351.953, 96.395 342.324 C 86.240 334.094, 81.849 335.513, 73.207 349.818 L 67.147 359.849 72.324 364.717 C 88.231 379.678, 109.839 390.077, 132.481 393.670 C 146.032 395.820, 169.228 395.059, 180.500 392.094 C 197.608 387.594, 214.374 377.349, 224.554 365.176 C 236.768 350.571, 243.272 331.434, 243.305 310 C 243.335 290.199, 239.177 278.651, 227.500 266.109 C 216.090 253.853, 205.161 248.201, 169 235.857 C 134.965 224.239, 122.479 216.811, 116.525 204.641 C 111.703 194.784, 112.299 181.174, 118.048 169.906 C 122.654 160.878, 133.990 152.800, 146.703 149.489 C 154.336 147.501, 173.711 147.522, 181.540 149.526 C 189.040 151.446, 201.422 157.379, 210.453 163.380 C 218.750 168.893, 222.382 169.324, 226.209 165.250 C 229.514 161.733, 237.292 146.203, 236.622 144.459 C 235.735 142.146, 221.802 132.362, 213.500 128.222 C 209.100 126.028, 202.350 123.256, 198.500 122.062 C 183.020 117.264, 159.583 115.714, 144.342 118.479 M 291 256 L 291 392 368 392 L 445 392 445 376.500 L 445 361 386 361 L 327 361 327 240.500 L 327 120 309 120 L 291 120 291 256" stroke="none" fill="#fbfbfb" fill-rule="evenodd"/><path d="M 37.688 1.502 C 20.428 6.246, 6.078 20.753, 1.453 38.131 C -0.692 46.190, -0.692 465.810, 1.453 473.869 C 6.142 491.486, 20.514 505.858, 38.131 510.547 C 46.190 512.692, 465.810 512.692, 473.869 510.547 C 491.313 505.904, 507.636 489.518, 510.536 473.739 C 510.916 471.670, 511.626 469.731, 512.113 469.430 C 512.624 469.114, 513 378.229, 513 254.882 C 513 130.040, 512.629 41.111, 512.110 41.432 C 511.620 41.735, 510.910 40.299, 510.532 38.241 C 507.636 22.482, 491.303 6.093, 473.869 1.453 C 466.164 -0.598, 45.154 -0.551, 37.688 1.502 M 0.491 256 C 0.491 373.975, 0.607 422.238, 0.750 363.250 C 0.892 304.263, 0.892 207.738, 0.750 148.750 C 0.607 89.763, 0.491 138.025, 0.491 256 M 144.342 118.479 C 99.226 126.666, 72.127 164.901, 80.484 208.579 C 84.380 228.942, 96.889 244.381, 117.782 254.613 C 122.928 257.132, 138.602 262.962, 152.615 267.567 C 180.510 276.734, 189.515 280.876, 197.585 288.252 C 204.804 294.850, 208.029 301.668, 208.724 311.800 C 210.425 336.627, 196.398 356.023, 172 362.578 C 163.139 364.958, 142.992 364.945, 134 362.552 C 122.087 359.382, 108.277 351.953, 96.395 342.324 C 86.240 334.094, 81.849 335.513, 73.207 349.818 L 67.147 359.849 72.324 364.717 C 88.231 379.678, 109.839 390.077, 132.481 393.670 C 146.032 395.820, 169.228 395.059, 180.500 392.094 C 197.608 387.594, 214.374 377.349, 224.554 365.176 C 236.768 350.571, 243.272 331.434, 243.305 310 C 243.335 290.199, 239.177 278.651, 227.500 266.109 C 216.090 253.853, 205.161 248.201, 169 235.857 C 134.965 224.239, 122.479 216.811, 116.525 204.641 C 111.703 194.784, 112.299 181.174, 118.048 169.906 C 122.654 160.878, 133.990 152.800, 146.703 149.489 C 154.336 147.501, 173.711 147.522, 181.540 149.526 C 189.040 151.446, 201.422 157.379, 210.453 163.380 C 218.750 168.893, 222.382 169.324, 226.209 165.250 C 229.514 161.733, 237.292 146.203, 236.622 144.459 C 235.735 142.146, 221.802 132.362, 213.500 128.222 C 209.100 126.028, 202.350 123.256, 198.500 122.062 C 183.020 117.264, 159.583 115.714, 144.342 118.479 M 291 256 L 291 392 368 392 L 445 392 445 376.500 L 445 361 386 361 L 327 361 327 240.500 L 327 120 309 120 L 291 120 291 256" stroke="none" fill="#34745c" fill-rule="evenodd"/></svg>